<?xml version="1.0" standalone="no"?>
<!DOCTYPE svg PUBLIC "-//W3C//DTD SVG 20010904//EN"
 "http://www.w3.org/TR/2001/REC-SVG-20010904/DTD/svg10.dtd">
<svg version="1.0" xmlns="http://www.w3.org/2000/svg"
 width="333.000000pt" height="333.000000pt" viewBox="0 0 333.000000 333.000000"
 preserveAspectRatio="xMidYMid meet">

<g transform="translate(0.000000,333.000000) scale(0.100000,-0.100000)"
fill="#000000" stroke="none">
<path d="M1415 3310 c-483 -86 -870 -331 -1130 -720 -335 -500 -376 -1126
-109 -1663 160 -323 428 -591 751 -751 307 -153 664 -209 982 -156 266 45 471
125 681 265 183 123 332 272 455 455 335 500 376 1126 109 1663 -160 323 -428
591 -751 751 -305 152 -678 210 -988 156z m177 -637 l3 -108 93 -8 c52 -5 100
-6 108 -3 11 4 14 30 14 116 l0 110 40 0 40 0 0 -124 0 -124 53 -18 c284 -93
507 -334 577 -626 25 -103 27 -283 5 -378 -63 -270 -250 -503 -490 -609 -156
-69 -279 -83 -690 -79 l-320 3 0 865 0 865 245 5 245 5 3 108 3 107 34 0 34 0
3 -107z"/>
<path d="M1160 1690 l0 -720 306 0 c276 0 314 2 386 21 209 53 377 189 472
384 74 151 94 310 60 466 -18 83 -67 195 -112 261 -45 64 -151 164 -217 204
-56 34 -155 78 -160 72 -1 -2 -5 -167 -9 -367 -4 -201 -9 -367 -11 -370 -3 -2
-5 31 -6 75 0 55 -3 72 -9 58 -12 -29 -27 -37 -34 -19 -3 9 -9 156 -12 328 -5
209 -11 314 -18 319 -6 4 -55 8 -108 8 l-98 0 -1 -277 c-1 -230 -12 -463 -17
-389 -3 37 -41 -12 -45 -58 -2 -22 -4 131 -5 342 l-2 382 -180 0 -180 0 0
-720z"/>
</g>
</svg>
